<?xml version="1.0" encoding="utf-8"?>
<!-- Generator: Adobe Illustrator 25.0.1, SVG Export Plug-In . SVG Version: 6.00 Build 0)  -->
<svg version="1.1" id="Capa_1" xmlns="http://www.w3.org/2000/svg" xmlns:xlink="http://www.w3.org/1999/xlink" x="0px" y="0px"
	 viewBox="0 0 345.3 333" style="enable-background:new 0 0 345.3 333;" xml:space="preserve">
<style type="text/css">
	.st0{fill:#2EBE6E;}
</style>
<g>
	<g>
		<path class="st0" d="M330.8,0H14.5C6.5,0,0,6.5,0,14.4v304.1c0,8,6.5,14.5,14.5,14.5h316.3c8,0,14.5-6.5,14.5-14.5V14.4
			C345.3,6.5,338.8,0,330.8,0z M316.4,28.9l-0.1,275.2H29V28.9H316.4z"/>
		<path class="st0" d="M64.2,274.3h217c8,0,14.5-6.5,14.5-14.5v-70.4h-29v56H78.7v-56h-29v70.4C49.7,267.9,56.2,274.3,64.2,274.3z"
			/>
	</g>
	<polygon class="st0" points="145.2,94.2 145.2,156 117.4,156 172.7,217.7 227.9,156 200.4,156 200.4,94.2 	"/>
</g>
</svg>
